# xmcd
#
# Track frame offsets:
#	150
#	17161
#	32932
#	45898
#	63923
#	82169
#	96646
#	112384
#	126808
#	143336
#	160978
#	177352
#
# Disc length: 2573 seconds
# Revision: 0
# Processed by: cddbd v1.5.2PL0 Copyright (c) Steve Scherf et al.
# Submitted via: dBpowerAMP V12.0
#
DISCID=a50a0b0c
DTITLE=Andy Cowan - After The Rain
DYEAR=2014
DGENRE=Blues
TTITLE0=With You in Mind
TTITLE1=What Good Am I?
TTITLE2=Janelle
TTITLE3=Hold On To Me
TTITLE4=Make You Feel My Love
TTITLE5=Back When We Were Beautiful
TTITLE6=When You Smile
TTITLE7=Over the Rainbow
TTITLE8=You Dont Know What Love Is
TTITLE9=Memories Of Tomorrow
TTITLE10=Georgia On My Mind
TTITLE11=Falling
EXTD=
EXTT0=
EXTT1=
EXTT2=
EXTT3=
EXTT4=
EXTT5=
EXTT6=
EXTT7=
EXTT8=
EXTT9=
EXTT10=
EXTT11=
PLAYORDER=
